<svg id="Layer_1" enable-background="new 0 0 512 512" height="512" viewBox="0 0 512 512" width="512" xmlns="http://www.w3.org/2000/svg"><g><g><path d="m195.611 512c-2.766 0-5.565-.763-8.07-2.361-6.998-4.464-9.053-13.758-4.589-20.756 62.702-98.293 58.08-252.816 58.026-254.365-.29-8.294 6.198-15.256 14.492-15.548 8.255-.294 15.255 6.19 15.551 14.484.06 1.678 1.385 41.709-5.532 95.124-9.359 72.28-28.601 131.654-57.192 176.473-2.867 4.494-7.724 6.949-12.686 6.949z" fill="#008040"/></g><path d="m410.168 179.998 10.866-10.866c19.919-19.919 19.919-52.331 0-72.251-17.648-17.646-45.244-19.997-65.621-5.588l-36.559 25.851 25.85-36.559c14.41-20.377 12.059-47.975-5.589-65.621-9.648-9.65-22.478-14.964-36.124-14.964s-26.476 5.314-36.125 14.964l-10.866 10.865-10.866-10.866c-9.649-9.649-22.478-14.963-36.125-14.963-13.646 0-26.476 5.314-36.126 14.964-17.647 17.647-19.997 45.245-5.588 65.621l25.85 36.559-36.559-25.851c-20.379-14.408-47.975-12.058-65.621 5.589-19.919 19.919-19.919 52.331 0 72.25l10.866 10.866-10.866 10.866c-19.919 19.919-19.919 52.331 0 72.25 17.647 17.647 45.246 19.995 65.621 5.588l36.559-25.851-25.85 36.56c-14.409 20.376-12.059 47.974 5.588 65.622 9.96 9.96 23.043 14.939 36.126 14.939s26.166-4.98 36.125-14.94l10.866-10.866 10.866 10.866c19.918 19.919 52.33 19.919 72.25 0 17.647-17.647 19.996-45.245 5.588-65.621l-25.85-36.56 36.559 25.851c20.375 14.409 47.974 12.059 65.621-5.588 19.919-19.92 19.919-52.331 0-72.25z" fill="#4dda37"/><path d="m266.866 345.032c19.918 19.919 52.33 19.919 72.25 0 17.647-17.647 19.996-45.245 5.588-65.621l-25.85-36.56 36.559 25.851c20.375 14.409 47.974 12.059 65.621-5.588 19.919-19.92 19.919-52.331 0-72.25l-10.866-10.866 10.866-10.866c19.919-19.919 19.919-52.331 0-72.251-17.648-17.646-45.244-19.997-65.621-5.588l-36.559 25.851 25.85-36.559c14.41-20.377 12.059-47.975-5.589-65.621-9.648-9.65-22.478-14.964-36.124-14.964s-26.476 5.314-36.125 14.964l-10.866 10.865v308.337z" fill="#00b863"/></g></svg>